<svg width="2096" height="397" viewBox="0 0 2096 397" fill="none" xmlns="http://www.w3.org/2000/svg">
    <path d="M1869.58 220.309C1869.58 208.902 1871.91 198.019 1876.56 187.658C1881.22 177.202 1887.92 167.982 1896.67 159.998C1905.41 152.014 1916.1 145.645 1928.75 140.893C1941.48 136.14 1955.93 133.764 1972.09 133.764C1988.15 133.764 2002.6 136.188 2015.43 141.035C2028.36 145.788 2039.29 152.346 2048.23 160.711C2057.26 169.076 2064.15 178.913 2068.9 190.225C2073.75 201.536 2076.17 213.655 2076.17 226.582C2076.17 228.198 2076.12 229.956 2076.03 231.857C2076.03 233.663 2075.93 235.327 2075.74 236.848H1916.63C1918.43 241.885 1921.33 246.495 1925.32 250.678C1929.41 254.86 1934.5 258.472 1940.58 261.514C1946.66 264.555 1953.7 266.932 1961.68 268.643C1969.67 270.258 1978.51 271.066 1988.2 271.066C1997.9 271.066 2007.54 270.068 2017.15 268.072C2026.75 265.981 2035.92 263.367 2044.66 260.23L2058.92 292.453C2053.41 295.02 2047.8 297.301 2042.1 299.297C2036.49 301.198 2030.59 302.814 2024.42 304.145C2018.33 305.38 2011.92 306.331 2005.17 306.996C1998.51 307.661 1991.48 307.994 1984.07 307.994C1965.15 307.994 1948.56 305.713 1934.31 301.15C1920.05 296.588 1908.12 290.362 1898.52 282.473C1888.92 274.583 1881.7 265.316 1876.85 254.67C1872 244.024 1869.58 232.57 1869.58 220.309ZM2031.4 203.912C2029.88 199.255 2027.51 194.93 2024.27 190.938C2021.14 186.85 2017.19 183.333 2012.44 180.387C2007.69 177.345 2002.17 174.969 1995.9 173.258C1989.63 171.547 1982.74 170.691 1975.23 170.691C1967.24 170.691 1959.97 171.594 1953.41 173.4C1946.85 175.206 1941.1 177.63 1936.16 180.672C1931.22 183.714 1927.08 187.23 1923.76 191.223C1920.52 195.215 1918.15 199.445 1916.63 203.912H2031.4Z" fill="black"/>
    <path d="M1657.4 136.615H1706.31L1750.08 237.846L1761.49 266.219L1772.89 237.846L1816.66 136.615H1865.57L1785.87 305H1737.1L1657.4 136.615Z" fill="black"/>
    <path d="M1447.51 251.961C1447.51 243.882 1449.27 236.515 1452.79 229.861C1456.3 223.208 1461.58 217.505 1468.61 212.752C1475.65 207.904 1484.39 204.197 1494.85 201.631C1505.4 198.969 1517.66 197.639 1531.63 197.639C1541.99 197.639 1552.88 198.399 1564.28 199.92C1575.78 201.441 1587.62 203.77 1599.78 206.906C1599.31 201.583 1597.69 196.688 1594.94 192.221C1592.18 187.658 1588.33 183.761 1583.39 180.529C1578.54 177.202 1572.65 174.636 1565.71 172.83C1558.86 171.024 1551.07 170.121 1542.33 170.121C1537.57 170.121 1532.35 170.406 1526.64 170.977C1520.94 171.547 1515.05 172.402 1508.96 173.543C1502.88 174.684 1496.84 176.109 1490.85 177.82C1484.96 179.531 1479.45 181.575 1474.32 183.951L1461.48 149.305C1467.85 147.023 1474.65 144.932 1481.87 143.031C1489.19 141.13 1496.65 139.514 1504.26 138.184C1511.86 136.758 1519.47 135.665 1527.07 134.904C1534.67 134.144 1542.04 133.764 1549.17 133.764C1580.63 133.764 1604.01 141.796 1619.32 157.859C1634.62 173.923 1642.27 198.542 1642.27 231.715V305H1600.07V289.174C1595.7 291.74 1590.9 294.164 1585.67 296.445C1580.54 298.727 1574.93 300.723 1568.85 302.434C1562.76 304.145 1556.2 305.475 1549.17 306.426C1542.23 307.471 1534.86 307.994 1527.07 307.994C1513.95 307.994 1502.4 306.568 1492.42 303.717C1482.54 300.865 1474.27 296.921 1467.61 291.883C1460.96 286.845 1455.92 280.952 1452.5 274.203C1449.17 267.359 1447.51 259.945 1447.51 251.961ZM1492 250.535C1492 253.292 1492.71 255.953 1494.13 258.52C1495.56 260.991 1497.84 263.225 1500.98 265.221C1504.11 267.122 1508.11 268.69 1512.95 269.926C1517.9 271.066 1523.84 271.637 1530.78 271.637C1538.19 271.637 1545.37 270.971 1552.31 269.641C1559.24 268.31 1565.71 266.551 1571.7 264.365C1577.69 262.179 1583.1 259.66 1587.95 256.809C1592.8 253.957 1596.84 251.01 1600.07 247.969V240.555C1593.61 238.749 1587.19 237.228 1580.82 235.992C1574.55 234.757 1568.51 233.806 1562.71 233.141C1557.01 232.38 1551.59 231.857 1546.46 231.572C1541.42 231.287 1537 231.145 1533.2 231.145C1525.31 231.145 1518.75 231.667 1513.52 232.713C1508.3 233.758 1504.07 235.184 1500.84 236.99C1497.6 238.701 1495.32 240.745 1493.99 243.121C1492.66 245.497 1492 247.969 1492 250.535Z" fill="black"/>
    <path d="M1161.48 136.615H1210.39L1254.16 237.846L1266.99 266.219L1282.67 229.434L1241.04 136.615H1282.1L1302.49 186.518L1322.88 136.615H1363.94L1322.17 229.434L1337.99 266.219L1350.83 237.846L1394.6 136.615H1443.5L1363.8 305H1317.89L1302.49 272.492L1287.09 305H1241.18L1161.48 136.615Z" fill="black"/>
    <path d="M945.174 221.592C945.174 208.189 947.693 196.118 952.731 185.377C957.769 174.541 964.708 165.321 973.547 157.717C982.482 150.018 993.033 144.124 1005.2 140.037C1017.46 135.855 1030.72 133.764 1044.98 133.764C1051.06 133.764 1057.05 134.144 1062.94 134.904C1068.93 135.665 1074.64 136.71 1080.05 138.041C1085.57 139.372 1090.7 140.988 1095.45 142.889C1100.3 144.695 1104.58 146.691 1108.28 148.877V68.4629H1150.49V305H1108.28V289.174C1104.58 291.74 1100.2 294.164 1095.17 296.445C1090.13 298.727 1084.71 300.723 1078.91 302.434C1073.11 304.145 1067.08 305.475 1060.81 306.426C1054.63 307.471 1048.5 307.994 1042.41 307.994C1028.15 307.994 1015.04 305.903 1003.06 301.721C991.18 297.538 980.961 291.645 972.407 284.041C963.852 276.437 957.151 267.359 952.303 256.809C947.551 246.163 945.174 234.424 945.174 221.592ZM989.516 221.592C989.516 228.34 990.847 234.709 993.508 240.697C996.265 246.686 1000.16 251.961 1005.2 256.523C1010.33 260.991 1016.46 264.555 1023.59 267.217C1030.82 269.783 1038.9 271.066 1047.83 271.066C1053.53 271.066 1059.24 270.544 1064.94 269.498C1070.64 268.357 1076.11 266.789 1081.34 264.793C1086.66 262.797 1091.6 260.373 1096.16 257.521C1100.82 254.67 1104.86 251.486 1108.28 247.969V189.654C1104.01 186.232 1099.49 183.333 1094.74 180.957C1089.99 178.581 1085.14 176.632 1080.2 175.111C1075.25 173.59 1070.26 172.497 1065.23 171.832C1060.19 171.072 1055.29 170.691 1050.54 170.691C1040.84 170.691 1032.19 172.022 1024.59 174.684C1017.08 177.25 1010.71 180.814 1005.48 185.377C1000.35 189.939 996.407 195.31 993.651 201.488C990.894 207.667 989.516 214.368 989.516 221.592Z" fill="black"/>
    <path d="M900.388 113.803C896.205 113.803 892.403 113.232 888.981 112.092C885.655 110.856 882.803 109.24 880.427 107.244C878.05 105.153 876.197 102.777 874.866 100.115C873.631 97.3587 873.013 94.4596 873.013 91.418C873.013 88.2812 873.631 85.3822 874.866 82.7207C876.197 79.9642 878.05 77.5879 880.427 75.5918C882.803 73.5957 885.655 72.0273 888.981 70.8867C892.403 69.651 896.205 69.0332 900.388 69.0332C904.665 69.0332 908.467 69.651 911.794 70.8867C915.216 72.0273 918.115 73.5957 920.491 75.5918C922.868 77.5879 924.674 79.9642 925.909 82.7207C927.24 85.3822 927.905 88.2812 927.905 91.418C927.905 94.4596 927.24 97.3587 925.909 100.115C924.674 102.777 922.868 105.153 920.491 107.244C918.115 109.24 915.216 110.856 911.794 112.092C908.467 113.232 904.665 113.803 900.388 113.803ZM879.286 136.758H921.489V305H879.286V136.758Z" fill="black"/>
    <path d="M749.095 136.758H791.298V160.996C800.613 154.057 810.451 148.069 820.812 143.031C831.173 137.993 841.486 134.144 851.751 131.482L864.156 170.121C847.902 171.737 833.597 175.396 821.24 181.1C808.978 186.708 798.998 194.645 791.298 204.91V305H749.095V136.758Z" fill="black"/>
    <path d="M549.754 333.516C555.077 335.417 560.495 336.985 566.008 338.221C571.521 339.551 576.844 340.597 581.977 341.357C587.204 342.213 592.195 342.783 596.947 343.068C601.7 343.449 605.93 343.639 609.637 343.639C620.853 343.639 630.596 342.26 638.865 339.504C647.23 336.842 654.169 333.23 659.682 328.668C665.29 324.105 669.472 318.783 672.229 312.699C674.985 306.711 676.363 300.342 676.363 293.594V286.322C672.751 288.794 668.521 291.17 663.674 293.451C658.826 295.732 653.503 297.729 647.705 299.439C641.907 301.15 635.729 302.529 629.17 303.574C622.706 304.62 616.005 305.143 609.066 305.143C595.284 305.143 582.547 303.099 570.855 299.012C559.164 294.829 549.041 289.031 540.486 281.617C531.932 274.108 525.23 265.126 520.383 254.67C515.63 244.214 513.254 232.618 513.254 219.881C513.254 206.859 515.773 195.072 520.811 184.521C525.848 173.876 532.787 164.798 541.627 157.289C550.562 149.78 561.113 143.982 573.279 139.895C585.446 135.807 598.658 133.764 612.916 133.764C618.999 133.764 625.035 134.144 631.023 134.904C637.012 135.665 642.715 136.71 648.133 138.041C653.646 139.372 658.779 140.988 663.531 142.889C668.379 144.695 672.656 146.691 676.363 148.877V136.758H718.566V285.752C718.566 301.055 716.238 314.6 711.58 326.387C706.923 338.173 700.079 348.059 691.049 356.043C682.114 364.122 670.993 370.206 657.686 374.293C644.378 378.475 629.122 380.566 611.918 380.566C605.74 380.566 599.324 380.281 592.67 379.711C586.016 379.236 579.315 378.475 572.566 377.43C565.913 376.479 559.307 375.291 552.748 373.865C546.285 372.535 540.059 370.966 534.07 369.16L549.754 333.516ZM557.596 219.453C557.596 226.202 558.926 232.57 561.588 238.559C564.344 244.452 568.242 249.632 573.279 254.1C578.317 258.472 584.4 261.941 591.529 264.508C598.658 266.979 606.69 268.215 615.625 268.215C621.423 268.215 627.174 267.692 632.877 266.646C638.675 265.506 644.188 263.938 649.416 261.941C654.739 259.945 659.682 257.521 664.244 254.67C668.902 251.818 672.941 248.634 676.363 245.117V189.654C672.086 186.232 667.571 183.333 662.818 180.957C658.066 178.581 653.218 176.632 648.275 175.111C643.333 173.59 638.342 172.497 633.305 171.832C628.267 171.072 623.372 170.691 618.619 170.691C608.924 170.691 600.274 171.975 592.67 174.541C585.161 177.107 578.792 180.624 573.564 185.092C568.432 189.464 564.487 194.597 561.73 200.49C558.974 206.383 557.596 212.704 557.596 219.453Z" fill="black"/>
    <mask id="mask0_1322_45" style="mask-type:luminance" maskUnits="userSpaceOnUse" x="0" y="0" width="397" height="397">
        <path d="M352 0H45C20.1472 0 0 20.1472 0 45V352C0 376.853 20.1472 397 45 397H352C376.853 397 397 376.853 397 352V45C397 20.1472 376.853 0 352 0Z" fill="white"/>
    </mask>
    <g mask="url(#mask0_1322_45)">
        <g filter="url(#filter0_i_1322_45)">
            <path d="M397 0H0V397H397V0Z" fill="#00F521"/>
            <path d="M397 0H0V397H397V0Z" fill="url(#paint0_linear_1322_45)" fill-opacity="0.2"/>
        </g>
        <path d="M167 138.5C32.6 214.1 -8 294.667 -11.5 325.5V409H421.5V26.5C359.5 136.333 217.2 344 144 296C70.8 248 128.833 171 167 138.5Z" fill="url(#paint1_linear_1322_45)" fill-opacity="0.6"/>
    </g>
    <defs>
        <filter id="filter0_i_1322_45" x="0" y="0" width="397" height="397" filterUnits="userSpaceOnUse" color-interpolation-filters="sRGB">
            <feFlood flood-opacity="0" result="BackgroundImageFix"/>
            <feBlend mode="normal" in="SourceGraphic" in2="BackgroundImageFix" result="shape"/>
            <feColorMatrix in="SourceAlpha" type="matrix" values="0 0 0 0 0 0 0 0 0 0 0 0 0 0 0 0 0 0 127 0" result="hardAlpha"/>
            <feOffset/>
            <feGaussianBlur stdDeviation="12"/>
            <feComposite in2="hardAlpha" operator="arithmetic" k2="-1" k3="1"/>
            <feColorMatrix type="matrix" values="0 0 0 0 0 0 0 0 0 0.960784 0 0 0 0 0.129412 0 0 0 1 0"/>
            <feBlend mode="normal" in2="shape" result="effect1_innerShadow_1322_45"/>
        </filter>
        <linearGradient id="paint0_linear_1322_45" x1="198.5" y1="0" x2="198.5" y2="397" gradientUnits="userSpaceOnUse">
            <stop stop-opacity="0"/>
            <stop offset="1"/>
        </linearGradient>
        <linearGradient id="paint1_linear_1322_45" x1="163" y1="132" x2="268" y2="457.5" gradientUnits="userSpaceOnUse">
            <stop stop-color="white"/>
            <stop offset="1" stop-color="white" stop-opacity="0"/>
        </linearGradient>
    </defs>
</svg>
